<mxfile host="app.diagrams.net" modified="2023-10-23T09:29:57.421Z" agent="Mozilla/5.0 (X11; Linux x86_64; rv:109.0) Gecko/20100101 Firefox/114.0" etag="cKC-tUr1rr4xnwt7nJTO" version="22.0.6" type="github">
  <diagram name="第 1 页" id="yHkT4WGrK9r3z9cLYN4Q">
    <mxGraphModel dx="2901" dy="1078" grid="1" gridSize="10" guides="1" tooltips="1" connect="1" arrows="1" fold="1" page="1" pageScale="1" pageWidth="827" pageHeight="1169" math="0" shadow="0">
      <root>
        <mxCell id="0" />
        <mxCell id="1" parent="0" />
        <mxCell id="6DGAA9d4LwL_hDjaEFDB-17" value="&lt;div align=&quot;left&quot;&gt;电脑——肌电信号采集软件前端&lt;/div&gt;&lt;div align=&quot;left&quot;&gt;&lt;br&gt;&lt;/div&gt;&lt;div align=&quot;left&quot;&gt;&lt;br&gt;&lt;/div&gt;&lt;div align=&quot;left&quot;&gt;&lt;br&gt;&lt;/div&gt;&lt;div align=&quot;left&quot;&gt;&lt;br&gt;&lt;/div&gt;&lt;div align=&quot;left&quot;&gt;&lt;br&gt;&lt;/div&gt;&lt;div align=&quot;left&quot;&gt;&lt;br&gt;&lt;/div&gt;&lt;div align=&quot;left&quot;&gt;&lt;br&gt;&lt;/div&gt;&lt;div align=&quot;left&quot;&gt;&lt;br&gt;&lt;/div&gt;&lt;div align=&quot;left&quot;&gt;&lt;br&gt;&lt;/div&gt;&lt;div align=&quot;left&quot;&gt;&lt;br&gt;&lt;/div&gt;&lt;div align=&quot;left&quot;&gt;&lt;br&gt;&lt;/div&gt;&lt;div align=&quot;left&quot;&gt;&lt;br&gt;&lt;/div&gt;&lt;div align=&quot;left&quot;&gt;&lt;br&gt;&lt;/div&gt;&lt;div align=&quot;left&quot;&gt;&lt;br&gt;&lt;/div&gt;" style="whiteSpace=wrap;html=1;rounded=0;dashed=1;align=left;fillColor=default;" parent="1" vertex="1">
          <mxGeometry x="733" y="180" width="367" height="240" as="geometry" />
        </mxCell>
        <mxCell id="6DGAA9d4LwL_hDjaEFDB-1" value="&lt;div&gt;电极&lt;/div&gt;" style="rounded=0;whiteSpace=wrap;html=1;" parent="1" vertex="1">
          <mxGeometry x="-230" y="220" width="120" height="60" as="geometry" />
        </mxCell>
        <mxCell id="6DGAA9d4LwL_hDjaEFDB-2" value="&lt;div&gt;主机&lt;/div&gt;&lt;div&gt;肌电图仪嵌入式软件&lt;br&gt;&lt;/div&gt;" style="whiteSpace=wrap;html=1;rounded=0;" parent="1" vertex="1">
          <mxGeometry x="-20" y="220" width="120" height="60" as="geometry" />
        </mxCell>
        <mxCell id="6DGAA9d4LwL_hDjaEFDB-3" value="" style="endArrow=classic;startArrow=classic;html=1;rounded=0;entryX=0;entryY=0.5;entryDx=0;entryDy=0;exitX=1;exitY=0.5;exitDx=0;exitDy=0;" parent="1" source="6DGAA9d4LwL_hDjaEFDB-1" target="6DGAA9d4LwL_hDjaEFDB-2" edge="1">
          <mxGeometry width="50" height="50" relative="1" as="geometry">
            <mxPoint x="-30" y="495" as="sourcePoint" />
            <mxPoint x="20" y="445" as="targetPoint" />
          </mxGeometry>
        </mxCell>
        <mxCell id="6DGAA9d4LwL_hDjaEFDB-4" value="心电导联线" style="edgeLabel;html=1;align=center;verticalAlign=middle;resizable=0;points=[];" parent="6DGAA9d4LwL_hDjaEFDB-3" vertex="1" connectable="0">
          <mxGeometry x="0.16" y="1" relative="1" as="geometry">
            <mxPoint x="-2" y="1" as="offset" />
          </mxGeometry>
        </mxCell>
        <mxCell id="6DGAA9d4LwL_hDjaEFDB-5" value="&lt;div align=&quot;left&quot;&gt;电脑——肌电信号采集软件后端&lt;/div&gt;&lt;div align=&quot;left&quot;&gt;&lt;br&gt;&lt;/div&gt;&lt;div align=&quot;left&quot;&gt;&lt;br&gt;&lt;/div&gt;&lt;div align=&quot;left&quot;&gt;&lt;br&gt;&lt;/div&gt;&lt;div align=&quot;left&quot;&gt;&lt;br&gt;&lt;/div&gt;&lt;div align=&quot;left&quot;&gt;&lt;br&gt;&lt;/div&gt;&lt;div align=&quot;left&quot;&gt;&lt;br&gt;&lt;/div&gt;&lt;div align=&quot;left&quot;&gt;&lt;br&gt;&lt;/div&gt;&lt;div align=&quot;left&quot;&gt;&lt;br&gt;&lt;/div&gt;&lt;div align=&quot;left&quot;&gt;&lt;br&gt;&lt;/div&gt;&lt;div align=&quot;left&quot;&gt;&lt;br&gt;&lt;/div&gt;&lt;div align=&quot;left&quot;&gt;&lt;br&gt;&lt;/div&gt;&lt;div align=&quot;left&quot;&gt;&lt;br&gt;&lt;/div&gt;&lt;div align=&quot;left&quot;&gt;&lt;br&gt;&lt;/div&gt;&lt;div align=&quot;left&quot;&gt;&lt;br&gt;&lt;/div&gt;" style="whiteSpace=wrap;html=1;rounded=0;dashed=1;align=left;" parent="1" vertex="1">
          <mxGeometry x="203" y="180" width="480" height="240" as="geometry" />
        </mxCell>
        <mxCell id="6DGAA9d4LwL_hDjaEFDB-13" style="edgeStyle=orthogonalEdgeStyle;rounded=0;orthogonalLoop=1;jettySize=auto;html=1;exitX=1;exitY=0.5;exitDx=0;exitDy=0;entryX=0;entryY=0.5;entryDx=0;entryDy=0;" parent="1" source="6DGAA9d4LwL_hDjaEFDB-6" target="6DGAA9d4LwL_hDjaEFDB-7" edge="1">
          <mxGeometry relative="1" as="geometry" />
        </mxCell>
        <mxCell id="6DGAA9d4LwL_hDjaEFDB-6" value="蓝牙模块" style="rounded=0;whiteSpace=wrap;html=1;" parent="1" vertex="1">
          <mxGeometry x="223" y="221.5" width="120" height="60" as="geometry" />
        </mxCell>
        <mxCell id="6DGAA9d4LwL_hDjaEFDB-14" style="edgeStyle=orthogonalEdgeStyle;rounded=0;orthogonalLoop=1;jettySize=auto;html=1;exitX=1;exitY=0.5;exitDx=0;exitDy=0;entryX=0;entryY=0.5;entryDx=0;entryDy=0;" parent="1" source="6DGAA9d4LwL_hDjaEFDB-7" target="6DGAA9d4LwL_hDjaEFDB-10" edge="1">
          <mxGeometry relative="1" as="geometry" />
        </mxCell>
        <mxCell id="6DGAA9d4LwL_hDjaEFDB-15" style="edgeStyle=orthogonalEdgeStyle;rounded=0;orthogonalLoop=1;jettySize=auto;html=1;exitX=0.5;exitY=1;exitDx=0;exitDy=0;entryX=0.5;entryY=0;entryDx=0;entryDy=0;" parent="1" source="6DGAA9d4LwL_hDjaEFDB-7" target="6DGAA9d4LwL_hDjaEFDB-8" edge="1">
          <mxGeometry relative="1" as="geometry" />
        </mxCell>
        <mxCell id="6DGAA9d4LwL_hDjaEFDB-16" style="edgeStyle=orthogonalEdgeStyle;rounded=0;orthogonalLoop=1;jettySize=auto;html=1;exitX=0.5;exitY=1;exitDx=0;exitDy=0;entryX=0.5;entryY=0;entryDx=0;entryDy=0;" parent="1" source="6DGAA9d4LwL_hDjaEFDB-7" target="6DGAA9d4LwL_hDjaEFDB-9" edge="1">
          <mxGeometry relative="1" as="geometry" />
        </mxCell>
        <mxCell id="6DGAA9d4LwL_hDjaEFDB-7" value="采集信号缓存" style="rounded=0;whiteSpace=wrap;html=1;" parent="1" vertex="1">
          <mxGeometry x="363" y="221.5" width="120" height="60" as="geometry" />
        </mxCell>
        <mxCell id="6DGAA9d4LwL_hDjaEFDB-8" value="采集信号存储" style="rounded=0;whiteSpace=wrap;html=1;" parent="1" vertex="1">
          <mxGeometry x="223" y="322" width="120" height="60" as="geometry" />
        </mxCell>
        <mxCell id="6DGAA9d4LwL_hDjaEFDB-9" value="数据库存储" style="rounded=0;whiteSpace=wrap;html=1;" parent="1" vertex="1">
          <mxGeometry x="363" y="322" width="120" height="60" as="geometry" />
        </mxCell>
        <mxCell id="zDEN-PfOFrG2o0rvSzSN-16" style="edgeStyle=orthogonalEdgeStyle;rounded=0;orthogonalLoop=1;jettySize=auto;html=1;" parent="1" source="6DGAA9d4LwL_hDjaEFDB-10" target="zDEN-PfOFrG2o0rvSzSN-1" edge="1">
          <mxGeometry relative="1" as="geometry" />
        </mxCell>
        <mxCell id="6DGAA9d4LwL_hDjaEFDB-10" value="推送" style="rounded=0;whiteSpace=wrap;html=1;" parent="1" vertex="1">
          <mxGeometry x="503" y="221.5" width="120" height="60" as="geometry" />
        </mxCell>
        <mxCell id="6DGAA9d4LwL_hDjaEFDB-11" value="" style="endArrow=classic;startArrow=classic;html=1;rounded=0;entryX=0;entryY=0.5;entryDx=0;entryDy=0;exitX=1;exitY=0.5;exitDx=0;exitDy=0;" parent="1" source="6DGAA9d4LwL_hDjaEFDB-2" target="6DGAA9d4LwL_hDjaEFDB-6" edge="1">
          <mxGeometry width="50" height="50" relative="1" as="geometry">
            <mxPoint x="43" y="470" as="sourcePoint" />
            <mxPoint x="93" y="420" as="targetPoint" />
          </mxGeometry>
        </mxCell>
        <mxCell id="6DGAA9d4LwL_hDjaEFDB-12" value="蓝牙" style="edgeLabel;html=1;align=center;verticalAlign=middle;resizable=0;points=[];" parent="6DGAA9d4LwL_hDjaEFDB-11" vertex="1" connectable="0">
          <mxGeometry x="0.0377" y="-1" relative="1" as="geometry">
            <mxPoint x="-1" as="offset" />
          </mxGeometry>
        </mxCell>
        <mxCell id="zDEN-PfOFrG2o0rvSzSN-8" style="edgeStyle=orthogonalEdgeStyle;rounded=0;orthogonalLoop=1;jettySize=auto;html=1;" parent="1" source="zDEN-PfOFrG2o0rvSzSN-1" target="zDEN-PfOFrG2o0rvSzSN-7" edge="1">
          <mxGeometry relative="1" as="geometry" />
        </mxCell>
        <mxCell id="zDEN-PfOFrG2o0rvSzSN-1" value="接收推送数据" style="rounded=0;whiteSpace=wrap;html=1;" parent="1" vertex="1">
          <mxGeometry x="770" y="223" width="110" height="58" as="geometry" />
        </mxCell>
        <mxCell id="zDEN-PfOFrG2o0rvSzSN-7" value="图形化界面展示采集信号" style="rounded=0;whiteSpace=wrap;html=1;" parent="1" vertex="1">
          <mxGeometry x="918" y="222" width="162" height="60" as="geometry" />
        </mxCell>
      </root>
    </mxGraphModel>
  </diagram>
</mxfile>
